<svg xmlns="http://www.w3.org/2000/svg" xmlns:xlink="http://www.w3.org/1999/xlink" width="392" height="93" viewBox="0 0 392 93">
  <defs>
    <filter id="COVID19_NEWS" x="95" y="0" width="297" height="93" filterUnits="userSpaceOnUse">
      <feOffset dy="3" input="SourceAlpha"/>
      <feGaussianBlur stdDeviation="3" result="blur"/>
      <feFlood flood-opacity="0.161"/>
      <feComposite operator="in" in2="blur"/>
      <feComposite in="SourceGraphic"/>
    </filter>
  </defs>
  <g id="LOGO" transform="translate(-131 -29)" style="mix-blend-mode: difference;isolation: isolate">
    <g id="Corona_virus_x2C__Covid-19_1_" transform="translate(131 29)">
      <circle id="XMLID_2_" cx="28.462" cy="28.462" r="28.462" transform="translate(15.204 15.199)" fill="#fff"/>
      <path id="XMLID_3_" d="M44.462,16A28.428,28.428,0,0,0,23.176,63.308,28.428,28.428,0,0,0,63.308,23.174,28.322,28.322,0,0,0,44.462,16Z" transform="translate(1.643 1.639)" fill="#ff8a80"/>
      <path id="XMLID_4_" d="M61.681,20.76c-.358-.317-.743-.607-1.117-.906A28.406,28.406,0,0,1,18.6,56.923,28.827,28.827,0,0,0,21.547,60.9,28.429,28.429,0,0,0,61.681,20.76Z" transform="translate(3.271 4.053)" fill="#ff5252"/>
      <path id="Caminho_1" data-name="Caminho 1" d="M16,31.47l-1.591-.345a29.134,29.134,0,0,1,2.851-7.688l1.43.776A27.529,27.529,0,0,0,16,31.47Z" transform="translate(0.647 6.297)" fill="#37474f"/>
      <path id="Caminho_2" data-name="Caminho 2" d="M14.385,38.111a29.711,29.711,0,0,1-.181-8.254l1.615.192a28.012,28.012,0,0,0,.172,7.8Z" transform="translate(0.39 10.318)" fill="#37474f"/>
      <path id="Caminho_3" data-name="Caminho 3" d="M19.314,46.6a29.027,29.027,0,0,1-4.705-9.775l1.571-.42a27.437,27.437,0,0,0,4.442,9.228Z" transform="translate(0.772 14.417)" fill="#37474f"/>
      <path id="Caminho_4" data-name="Caminho 4" d="M26.331,50.592a29.269,29.269,0,0,1-7.794-6.229l1.217-1.08a27.665,27.665,0,0,0,7.363,5.884Z" transform="translate(3.232 18.728)" fill="#37474f"/>
      <path id="Caminho_5" data-name="Caminho 5" d="M36.259,54.39A29.1,29.1,0,0,1,25.2,52.228l.615-1.506a27.676,27.676,0,0,0,31.536-7.73l1.241,1.051A29.235,29.235,0,0,1,36.259,54.39Z" transform="translate(7.406 18.546)" fill="#37474f"/>
      <path id="Caminho_6" data-name="Caminho 6" d="M47.492,53.05l-1.352-.9a27.692,27.692,0,0,0,2.039-27.1l1.472-.693a29.319,29.319,0,0,1-2.16,28.7Z" transform="translate(20.522 6.869)" fill="#37474f"/>
      <path id="Caminho_7" data-name="Caminho 7" d="M49.152,26.32a27.678,27.678,0,0,0-7.333-7.69l.94-1.326a29.273,29.273,0,0,1,7.764,8.138Z" transform="translate(17.816 2.456)" fill="#37474f"/>
      <path id="Caminho_8" data-name="Caminho 8" d="M42.676,18.722A27.553,27.553,0,0,0,36.4,16.18l.42-1.571a29.188,29.188,0,0,1,6.645,2.69Z" transform="translate(14.422 0.767)" fill="#37474f"/>
      <path id="Caminho_9" data-name="Caminho 9" d="M28.166,16.388l-.379-1.582a29.679,29.679,0,0,1,11.557-.431l-.259,1.605A28.056,28.056,0,0,0,28.166,16.388Z" transform="translate(9.026 0.387)" fill="#37474f"/>
      <path id="Caminho_10" data-name="Caminho 10" d="M22.644,19.969l-.93-1.334A29.208,29.208,0,0,1,28.9,14.979l.53,1.537A27.582,27.582,0,0,0,22.644,19.969Z" transform="translate(5.222 0.999)" fill="#37474f"/>
      <path id="Caminho_11" data-name="Caminho 11" d="M18.549,24.725,17.214,23.8a29.455,29.455,0,0,1,4.8-5.361l1.069,1.225A27.809,27.809,0,0,0,18.549,24.725Z" transform="translate(2.404 3.164)" fill="#37474f"/>
      <g id="Grupo_1" data-name="Grupo 1" transform="translate(42.039 53.419)">
        <circle id="XMLID_17_" cx="3.253" cy="3.253" r="3.253" transform="translate(0.813 0.813)" fill="#ff5252"/>
        <path id="Caminho_12" data-name="Caminho 12" d="M35.066,46.132a4.066,4.066,0,1,1,4.066-4.066A4.072,4.072,0,0,1,35.066,46.132Zm0-6.506a2.44,2.44,0,1,0,2.44,2.44A2.443,2.443,0,0,0,35.066,39.626Z" transform="translate(-31 -38)" fill="#37474f"/>
      </g>
      <g id="Grupo_2" data-name="Grupo 2" transform="translate(27.402 24.957)">
        <circle id="XMLID_18_" cx="3.253" cy="3.253" r="3.253" transform="translate(0.813 0.813)" fill="#ff5252"/>
        <path id="Caminho_13" data-name="Caminho 13" d="M26.066,28.632a4.066,4.066,0,1,1,4.066-4.066A4.072,4.072,0,0,1,26.066,28.632Zm0-6.506a2.44,2.44,0,1,0,2.44,2.44A2.443,2.443,0,0,0,26.066,22.126Z" transform="translate(-22 -20.5)" fill="#37474f"/>
      </g>
      <g id="Grupo_3" data-name="Grupo 3" transform="translate(27.402 43.661)">
        <circle id="XMLID_19_" cx="3.253" cy="3.253" r="3.253" transform="translate(0.813 0.813)" fill="#ff5252"/>
        <path id="Caminho_14" data-name="Caminho 14" d="M26.066,40.132a4.066,4.066,0,1,1,4.066-4.066A4.072,4.072,0,0,1,26.066,40.132Zm0-6.506a2.44,2.44,0,1,0,2.44,2.44A2.443,2.443,0,0,0,26.066,33.626Z" transform="translate(-22 -32)" fill="#37474f"/>
      </g>
      <g id="Grupo_4" data-name="Grupo 4" transform="translate(50.171 27.397)">
        <circle id="XMLID_20_" cx="3.253" cy="3.253" r="3.253" transform="translate(0.813 0.813)" fill="#ff5252"/>
        <path id="Caminho_15" data-name="Caminho 15" d="M40.066,30.132a4.066,4.066,0,1,1,4.066-4.066A4.072,4.072,0,0,1,40.066,30.132Zm0-6.506a2.44,2.44,0,1,0,2.44,2.44A2.443,2.443,0,0,0,40.066,23.626Z" transform="translate(-36 -22)" fill="#37474f"/>
      </g>
      <g id="Grupo_5" data-name="Grupo 5" transform="translate(51.797 42.034)">
        <circle id="XMLID_21_" cx="4.066" cy="4.066" r="4.066" transform="translate(0.813 0.813)" fill="#ff5252"/>
        <path id="Caminho_16" data-name="Caminho 16" d="M41.879,40.758a4.879,4.879,0,1,1,4.879-4.879A4.885,4.885,0,0,1,41.879,40.758Zm0-8.132a3.253,3.253,0,1,0,3.253,3.253A3.256,3.256,0,0,0,41.879,32.626Z" transform="translate(-37 -31)" fill="#37474f"/>
      </g>
      <g id="Grupo_6" data-name="Grupo 6" transform="translate(38.786 33.902)">
        <circle id="XMLID_37_" cx="4.066" cy="4.066" r="4.066" transform="translate(0.813 0.813)" fill="#ff5252"/>
        <path id="Caminho_17" data-name="Caminho 17" d="M33.879,35.758a4.879,4.879,0,1,1,4.879-4.879A4.885,4.885,0,0,1,33.879,35.758Zm0-8.132a3.253,3.253,0,1,0,3.253,3.253A3.256,3.256,0,0,0,33.879,27.626Z" transform="translate(-29 -26)" fill="#37474f"/>
      </g>
      <g id="XMLID_22_" transform="translate(26.286 1.702)">
        <g id="Grupo_7" data-name="Grupo 7">
          <circle id="Elipse_1" data-name="Elipse 1" cx="4.064" cy="4.064" r="4.064" transform="translate(0.814 0.815)" fill="#ff5252"/>
          <path id="Caminho_18" data-name="Caminho 18" d="M26.191,15.959a4.879,4.879,0,0,1-1.428-9.544,4.921,4.921,0,0,1,1.43-.215,4.879,4.879,0,0,1,0,9.758Zm0-8.132a3.253,3.253,0,0,0-3.11,4.2,3.283,3.283,0,0,0,4.061,2.158,3.252,3.252,0,0,0-.951-6.362Z" transform="translate(-21.314 -6.201)" fill="#37474f"/>
        </g>
        <g id="Grupo_8" data-name="Grupo 8" transform="translate(5.053 7.747)">
          <path id="Caminho_19" data-name="Caminho 19" d="M24.9,11.113l3.9,12.652Z" transform="translate(-24.122 -10.871)" fill="#ff5252"/>
          <rect id="Retângulo_2" data-name="Retângulo 2" width="13.24" height="1.626" transform="matrix(0.295, 0.956, -0.956, 0.295, 1.554, 0)" fill="#37474f"/>
        </g>
      </g>
      <g id="XMLID_23_" transform="translate(43.154 66.973)">
        <g id="Grupo_9" data-name="Grupo 9" transform="translate(0 12.874)">
          <circle id="Elipse_2" data-name="Elipse 2" cx="3.253" cy="3.253" r="3.253" transform="translate(0.812 0.809)" fill="#ff5252"/>
          <path id="Caminho_20" data-name="Caminho 20" d="M35.75,62.379a4.067,4.067,0,0,1-1.051-8,4.122,4.122,0,0,1,4.98,2.875,4.071,4.071,0,0,1-3.929,5.12Zm0-6.507a2.481,2.481,0,0,0-.634.085,2.444,2.444,0,0,0-1.726,2.988,2.472,2.472,0,0,0,2.988,1.726,2.441,2.441,0,0,0-.628-4.8Z" transform="translate(-31.686 -54.249)" fill="#37474f"/>
        </g>
        <g id="Grupo_10" data-name="Grupo 10" transform="translate(1.324 0)">
          <path id="Caminho_21" data-name="Caminho 21" d="M33,46.375,34.085,60.1Z" transform="translate(-32.187 -46.308)" fill="#ff5252"/>
          <rect id="Retângulo_3" data-name="Retângulo 3" width="13.771" height="1.626" transform="translate(1.621 0) rotate(85.48)" fill="#37474f"/>
        </g>
      </g>
      <g id="XMLID_24_" transform="translate(48.352)">
        <g id="Grupo_11" data-name="Grupo 11" transform="translate(1.858)">
          <circle id="Elipse_3" data-name="Elipse 3" cx="3.253" cy="3.253" r="3.253" transform="translate(0.813 0.809)" fill="#ff5252"/>
          <path id="Caminho_22" data-name="Caminho 22" d="M40.092,13.282a4.071,4.071,0,0,1-3.929-5.12,4.127,4.127,0,0,1,4.98-2.875,4.067,4.067,0,0,1-1.051,8Zm0-6.507a2.44,2.44,0,0,0-.629,4.8,2.474,2.474,0,0,0,2.988-1.726,2.439,2.439,0,0,0-2.358-3.071Z" transform="translate(-36.024 -5.155)" fill="#37474f"/>
        </g>
        <g id="Grupo_12" data-name="Grupo 12" transform="translate(0 6.992)">
          <path id="Caminho_23" data-name="Caminho 23" d="M39.661,9.583l-4.3,16.035Z" transform="translate(-34.579 -9.373)" fill="#ff5252"/>
          <rect id="Retângulo_4" data-name="Retângulo 4" width="1.626" height="16.6" transform="matrix(0.966, 0.259, -0.259, 0.966, 4.296, 0)" fill="#37474f"/>
        </g>
      </g>
      <g id="XMLID_25_" transform="translate(24.646 61.493)">
        <g id="Grupo_13" data-name="Grupo 13" transform="translate(0 14.544)">
          <circle id="Elipse_4" data-name="Elipse 4" cx="3.253" cy="3.253" r="3.253" transform="translate(0.814 0.796)" fill="#ff5252"/>
          <path id="Caminho_24" data-name="Caminho 24" d="M24.371,60.024a4.068,4.068,0,0,1-3.742-5.655,4.145,4.145,0,0,1,5.331-2.155,4.067,4.067,0,0,1-1.589,7.81Zm0-6.507a2.441,2.441,0,0,0-.953,4.687,2.48,2.48,0,0,0,3.2-1.293,2.446,2.446,0,0,0-2.244-3.394Z" transform="translate(-20.306 -51.907)" fill="#37474f"/>
        </g>
        <g id="Grupo_14" data-name="Grupo 14" transform="translate(4.588 0)">
          <path id="Caminho_25" data-name="Caminho 25" d="M30.071,43.16,23.588,58.441Z" transform="translate(-22.838 -42.842)" fill="#ff5252"/>
          <rect id="Retângulo_5" data-name="Retângulo 5" width="1.626" height="16.6" transform="matrix(0.921, 0.391, -0.391, 0.921, 6.482, 0)" fill="#37474f"/>
        </g>
      </g>
      <g id="XMLID_26_" transform="translate(58.943 7.796)">
        <g id="Grupo_15" data-name="Grupo 15" transform="translate(4.106)">
          <circle id="Elipse_5" data-name="Elipse 5" cx="3.253" cy="3.253" r="3.253" transform="translate(0.813 0.774)" fill="#ff5252"/>
          <path id="Caminho_26" data-name="Caminho 26" d="M47.984,18.041A4.066,4.066,0,0,1,45.109,11.1a4.164,4.164,0,0,1,5.749,0,4.066,4.066,0,0,1-2.874,6.941Zm0-6.506A2.44,2.44,0,0,0,46.258,15.7a2.5,2.5,0,0,0,3.45,0,2.44,2.44,0,0,0-1.724-4.165Z" transform="translate(-43.918 -9.948)" fill="#37474f"/>
        </g>
        <g id="Grupo_16" data-name="Grupo 16" transform="translate(0 5.841)">
          <path id="Caminho_27" data-name="Caminho 27" d="M47.013,13.838,41.8,20.775Z" transform="translate(-41.142 -13.352)" fill="#ff5252"/>
          <rect id="Retângulo_6" data-name="Retângulo 6" width="1.626" height="8.68" transform="matrix(0.799, 0.602, -0.602, 0.799, 5.222, 0)" fill="#37474f"/>
        </g>
      </g>
      <g id="XMLID_27_" transform="translate(6.888 61.722)">
        <g id="Grupo_17" data-name="Grupo 17" transform="translate(0 5.245)">
          <circle id="Elipse_6" data-name="Elipse 6" cx="4.066" cy="4.066" r="4.066" transform="translate(0.81 0.767)" fill="#ff5252"/>
          <path id="Caminho_28" data-name="Caminho 28" d="M14.263,56.043a4.88,4.88,0,0,1-3.45-8.33,5,5,0,0,1,6.9,0,4.88,4.88,0,0,1-3.451,8.33Zm0-8.132a3.252,3.252,0,0,0-2.3,5.552,3.331,3.331,0,0,0,4.6,0,3.252,3.252,0,0,0-2.3-5.552Z" transform="translate(-9.387 -46.33)" fill="#37474f"/>
        </g>
        <g id="Grupo_18" data-name="Grupo 18" transform="translate(6.677 0)">
          <path id="Caminho_29" data-name="Caminho 29" d="M22.978,43.5,13.8,50.637Z" transform="translate(-13.301 -42.858)" fill="#ff5252"/>
          <rect id="Retângulo_7" data-name="Retângulo 7" width="1.626" height="11.627" transform="translate(9.175 0) rotate(52.1)" fill="#37474f"/>
        </g>
      </g>
      <g id="XMLID_28_" transform="translate(61.179 21.712)">
        <g id="Grupo_19" data-name="Grupo 19" transform="translate(15.579)">
          <circle id="Elipse_7" data-name="Elipse 7" cx="4.064" cy="4.064" r="4.064" transform="translate(0.818 0.807)" fill="#ff5252"/>
          <path id="Caminho_30" data-name="Caminho 30" d="M57.226,28.255a4.879,4.879,0,0,1-1.262-9.591,4.948,4.948,0,0,1,5.974,3.45,4.881,4.881,0,0,1-4.712,6.141Zm0-8.132a3.253,3.253,0,0,0-3.144,4.1,3.3,3.3,0,0,0,3.983,2.3,3.253,3.253,0,0,0-.839-6.395Z" transform="translate(-52.347 -18.505)" fill="#37474f"/>
        </g>
        <g id="Grupo_20" data-name="Grupo 20" transform="translate(0 4.97)">
          <path id="Caminho_31" data-name="Caminho 31" d="M59.958,22.018,42.974,29.574Z" transform="translate(-42.64 -21.274)" fill="#ff5252"/>
          <rect id="Retângulo_8" data-name="Retângulo 8" width="1.626" height="18.59" transform="matrix(0.406, 0.914, -0.914, 0.406, 16.987, 0)" fill="#37474f"/>
        </g>
      </g>
      <g id="XMLID_29_" transform="translate(0 48.346)">
        <g id="Grupo_21" data-name="Grupo 21" transform="translate(0 1.864)">
          <circle id="Elipse_8" data-name="Elipse 8" cx="3.253" cy="3.253" r="3.253" transform="translate(0.813 0.809)" fill="#ff5252"/>
          <path id="Caminho_32" data-name="Caminho 32" d="M9.216,44.154a4.067,4.067,0,0,1-1.051-8,4.125,4.125,0,0,1,4.98,2.875,4.071,4.071,0,0,1-2.875,4.98A4,4,0,0,1,9.216,44.154Zm0-6.506a2.44,2.44,0,1,0,2.355,1.809A2.466,2.466,0,0,0,9.22,37.649Z" transform="translate(-5.152 -36.026)" fill="#37474f"/>
        </g>
        <g id="Grupo_22" data-name="Grupo 22" transform="translate(6.999)">
          <path id="Caminho_33" data-name="Caminho 33" d="M25.619,35.365l-16.035,4.3Z" transform="translate(-9.374 -34.577)" fill="#ff5252"/>
          <rect id="Retângulo_9" data-name="Retângulo 9" width="1.626" height="16.6" transform="matrix(0.259, 0.966, -0.966, 0.259, 16.034, 0)" fill="#37474f"/>
        </g>
      </g>
      <g id="XMLID_30_" transform="translate(70.148 52.635)">
        <g id="Grupo_23" data-name="Grupo 23" transform="translate(8.237 0.015)">
          <circle id="Elipse_9" data-name="Elipse 9" cx="3.253" cy="3.253" r="3.253" transform="translate(0.814 0.807)" fill="#ff5252"/>
          <path id="Caminho_34" data-name="Caminho 34" d="M57.416,45.654a4.13,4.13,0,0,1-1.054-.138,4.071,4.071,0,0,1-2.875-4.98,4.124,4.124,0,0,1,4.98-2.875,4.066,4.066,0,0,1-1.051,7.994Zm0-6.506a2.44,2.44,0,0,0-.629,4.8,2.468,2.468,0,0,0,2.988-1.726,2.44,2.44,0,0,0-1.726-2.988A2.458,2.458,0,0,0,57.413,39.148Z" transform="translate(-53.347 -37.528)" fill="#37474f"/>
        </g>
        <g id="Grupo_24" data-name="Grupo 24" transform="translate(0 0)">
          <path id="Caminho_35" data-name="Caminho 35" d="M57.363,40.449,48.415,38Z" transform="translate(-48.2 -37.216)" fill="#ff5252"/>
          <rect id="Retângulo_10" data-name="Retângulo 10" width="9.277" height="1.626" transform="translate(0.43 0) rotate(15.313)" fill="#37474f"/>
        </g>
      </g>
      <g id="XMLID_31_" transform="translate(3.649 34.721)">
        <g id="Grupo_25" data-name="Grupo 25">
          <circle id="Elipse_10" data-name="Elipse 10" cx="3.253" cy="3.253" r="3.253" transform="translate(0.814 0.808)" fill="#ff5252"/>
          <path id="Caminho_36" data-name="Caminho 36" d="M11.464,34.63a4.13,4.13,0,0,1-1.054-.138,4.071,4.071,0,0,1-2.875-4.98,4.126,4.126,0,0,1,4.98-2.875,4.066,4.066,0,0,1-1.051,7.994Zm0-6.506a2.44,2.44,0,0,0-.629,4.8,2.475,2.475,0,0,0,2.988-1.726,2.439,2.439,0,0,0-2.358-3.071Z" transform="translate(-7.395 -26.503)" fill="#37474f"/>
        </g>
        <g id="Grupo_26" data-name="Grupo 26" transform="translate(7.091 4.097)">
          <path id="Caminho_37" data-name="Caminho 37" d="M17.21,30.3l-5.382-.784Z" transform="translate(-11.71 -28.712)" fill="#ff5252"/>
          <rect id="Retângulo_11" data-name="Retângulo 11" width="5.439" height="1.626" transform="translate(0.235 0) rotate(8.297)" fill="#37474f"/>
        </g>
      </g>
      <g id="XMLID_32_" transform="translate(0.396 20.083)">
        <g id="Grupo_27" data-name="Grupo 27">
          <circle id="Elipse_11" data-name="Elipse 11" cx="3.253" cy="3.253" r="3.253" transform="translate(0.814 0.808)" fill="#ff5252"/>
          <path id="Caminho_38" data-name="Caminho 38" d="M9.464,25.63a4.13,4.13,0,0,1-1.054-.138,4.071,4.071,0,0,1-2.875-4.98,4.125,4.125,0,0,1,4.98-2.875A4.066,4.066,0,0,1,9.464,25.63Zm0-6.506a2.44,2.44,0,0,0-.629,4.8A2.474,2.474,0,0,0,11.819,22.2a2.439,2.439,0,0,0-2.358-3.071Z" transform="translate(-5.395 -17.503)" fill="#37474f"/>
        </g>
        <g id="Grupo_28" data-name="Grupo 28" transform="translate(6.866 4.164)">
          <path id="Caminho_39" data-name="Caminho 39" d="M25.466,27.807,9.828,20.518Z" transform="translate(-9.485 -19.778)" fill="#ff5252"/>
          <rect id="Retângulo_12" data-name="Retângulo 12" width="17.253" height="1.626" transform="translate(0.687 0) rotate(24.994)" fill="#37474f"/>
        </g>
      </g>
      <g id="XMLID_33_" transform="translate(60.233 57.667)">
        <g id="Grupo_29" data-name="Grupo 29" transform="translate(10.905 8.487)">
          <circle id="Elipse_12" data-name="Elipse 12" cx="3.253" cy="3.253" r="3.253" transform="translate(0.815 0.767)" fill="#ff5252"/>
          <path id="Caminho_40" data-name="Caminho 40" d="M52.958,53.916a4.065,4.065,0,0,1-3.075-6.723,4.184,4.184,0,0,1,5.735-.418,4.065,4.065,0,0,1-2.659,7.141Zm0-6.506a2.441,2.441,0,0,0-1.6,4.287,2.51,2.51,0,0,0,3.441-.25,2.441,2.441,0,0,0-1.844-4.037Z" transform="translate(-48.892 -45.831)" fill="#37474f"/>
        </g>
        <g id="Grupo_30" data-name="Grupo 30" transform="translate(0 0)">
          <path id="Caminho_41" data-name="Caminho 41" d="M54.5,50.75,42.5,41Z" transform="translate(-41.991 -40.369)" fill="#ff5252"/>
          <rect id="Retângulo_13" data-name="Retângulo 13" width="15.462" height="1.626" transform="translate(1.025 0) rotate(39.087)" fill="#37474f"/>
        </g>
      </g>
      <g id="XMLID_34_" transform="translate(12.24 9.055)">
        <g id="Grupo_31" data-name="Grupo 31">
          <circle id="Elipse_13" data-name="Elipse 13" cx="3.253" cy="3.253" r="3.253" transform="translate(0.813 0.774)" fill="#ff5252"/>
          <path id="Caminho_42" data-name="Caminho 42" d="M16.744,18.815a4.066,4.066,0,0,1-2.875-6.941,4.164,4.164,0,0,1,5.749,0,4.066,4.066,0,0,1-2.874,6.941Zm0-6.506a2.44,2.44,0,0,0-1.726,4.165,2.5,2.5,0,0,0,3.45,0,2.44,2.44,0,0,0-1.724-4.165Z" transform="translate(-12.678 -10.722)" fill="#37474f"/>
        </g>
        <g id="Grupo_32" data-name="Grupo 32" transform="translate(5.762 5.778)">
          <path id="Caminho_43" data-name="Caminho 43" d="M23.4,22.1l-6.813-7.493Z" transform="translate(-15.989 -14.063)" fill="#ff5252"/>
          <rect id="Retângulo_14" data-name="Retângulo 14" width="10.127" height="1.626" transform="matrix(0.673, 0.74, -0.74, 0.673, 1.203, 0)" fill="#37474f"/>
        </g>
      </g>
      <rect id="Retângulo_15" data-name="Retângulo 15" width="1.626" height="1.626" transform="translate(59.929 25.77)" fill="#37474f"/>
      <rect id="Retângulo_16" data-name="Retângulo 16" width="1.626" height="1.626" transform="translate(38.786 48.54)" fill="#37474f"/>
      <rect id="Retângulo_17" data-name="Retângulo 17" width="1.626" height="1.626" transform="translate(30.654 61.551)" fill="#37474f"/>
      <rect id="Retângulo_18" data-name="Retângulo 18" width="1.626" height="1.626" transform="translate(25.775 56.672)" fill="#37474f"/>
      <rect id="Retângulo_19" data-name="Retângulo 19" width="1.626" height="1.626" transform="translate(30.654 55.045)" fill="#37474f"/>
      <rect id="Retângulo_20" data-name="Retângulo 20" width="1.626" height="1.626" transform="translate(53.424 61.551)" fill="#37474f"/>
      <rect id="Retângulo_21" data-name="Retângulo 21" width="1.626" height="1.626" transform="translate(55.05 56.672)" fill="#37474f"/>
      <rect id="Retângulo_22" data-name="Retângulo 22" width="1.626" height="1.626" transform="translate(66.435 46.913)" fill="#37474f"/>
      <rect id="Retângulo_23" data-name="Retângulo 23" width="1.626" height="1.626" transform="translate(64.808 40.408)" fill="#37474f"/>
      <rect id="Retângulo_24" data-name="Retângulo 24" width="1.626" height="1.626" transform="translate(38.786 29.023)" fill="#37474f"/>
      <rect id="Retângulo_25" data-name="Retângulo 25" width="1.626" height="1.626" transform="translate(43.665 25.77)" fill="#37474f"/>
      <rect id="Retângulo_26" data-name="Retângulo 26" width="1.626" height="1.626" transform="translate(42.039 22.518)" fill="#37474f"/>
      <rect id="Retângulo_27" data-name="Retângulo 27" width="1.626" height="1.626" transform="translate(45.292 46.913)" fill="#37474f"/>
      <rect id="Retângulo_28" data-name="Retângulo 28" width="1.626" height="1.626" transform="translate(20.896 40.408)" fill="#37474f"/>
      <rect id="Retângulo_29" data-name="Retângulo 29" width="1.626" height="1.626" transform="translate(25.775 35.529)" fill="#37474f"/>
      <g id="XMLID_35_" transform="translate(55.978 68.562)">
        <g id="Grupo_33" data-name="Grupo 33" transform="translate(1.511 4.576)">
          <circle id="Elipse_14" data-name="Elipse 14" cx="3.253" cy="3.253" r="3.253" transform="translate(0.813 0.809)" fill="#ff5252"/>
          <path id="Caminho_44" data-name="Caminho 44" d="M44.564,58.254a4.067,4.067,0,0,1-1.051-8,4.124,4.124,0,0,1,4.98,2.875,4.071,4.071,0,0,1-3.929,5.12Zm0-6.507a2.481,2.481,0,0,0-.634.085,2.442,2.442,0,0,0-1.726,2.988A2.474,2.474,0,0,0,45.2,56.545a2.441,2.441,0,0,0-.628-4.8Z" transform="translate(-40.5 -50.125)" fill="#37474f"/>
        </g>
        <g id="Grupo_34" data-name="Grupo 34" transform="translate(0 0)">
          <path id="Caminho_45" data-name="Caminho 45" d="M40,47.567l3.253,5.421Z" transform="translate(-39.302 -47.15)" fill="#ff5252"/>
          <rect id="Retângulo_30" data-name="Retângulo 30" width="6.322" height="1.626" transform="matrix(0.515, 0.857, -0.857, 0.515, 1.394, 0)" fill="#37474f"/>
        </g>
      </g>
      <g id="XMLID_36_" transform="translate(71.891 38.294)">
        <g id="Grupo_35" data-name="Grupo 35" transform="translate(3.672)">
          <circle id="Elipse_15" data-name="Elipse 15" cx="3.253" cy="3.253" r="3.253" transform="translate(0.814 0.813)" fill="#ff5252"/>
          <path id="Caminho_46" data-name="Caminho 46" d="M55.676,36.832a4.066,4.066,0,0,1-.2-8.127l.21,0a4.066,4.066,0,0,1,.2,8.127Zm.007-6.506a2.486,2.486,0,0,0-1.813.805,2.439,2.439,0,0,0,1.807,4.074l.127,0a2.44,2.44,0,0,0-.12-4.876Z" transform="translate(-51.613 -28.7)" fill="#37474f"/>
        </g>
        <g id="Grupo_36" data-name="Grupo 36" transform="translate(0 3.268)">
          <path id="Caminho_47" data-name="Caminho 47" d="M49.374,31.208l4.46.153Z" transform="translate(-49.343 -30.397)" fill="#ff5252"/>
          <rect id="Retângulo_31" data-name="Retângulo 31" width="4.461" height="1.626" transform="translate(0.056 0) rotate(1.96)" fill="#37474f"/>
        </g>
      </g>
    </g>
    <g transform="matrix(1, 0, 0, 1, 131, 29)" filter="url(#COVID19_NEWS)">
      <text id="COVID19_NEWS-2" data-name="COVID19 NEWS" transform="translate(104 66)" fill="#ff5252" font-size="47" font-family="GoboldUplow, Gobold Uplow"><tspan x="0" y="0">COVID19 NEWS</tspan></text>
    </g>
  </g>
</svg>
